Coordinates
nRows=9
nColumns=38

# SIMM Motion File Header:
name Coordinates
datacolumns 38
datarows 9
otherdata 1
range 2.06539999999999990000 2.07339999999999990000

Units are S.I. units (second, meters, Newtons, ...)
Angles are in degrees.

endheader
time	pelvis_tilt	pelvis_list	pelvis_rotation	pelvis_tx	pelvis_ty	pelvis_tz	hip_flexion_r	hip_adduction_r	hip_rotation_r	knee_angle_r	ankle_angle_r	subtalar_angle_r	mtp_angle_r	hip_flexion_l	hip_adduction_l	hip_rotation_l	knee_angle_l	ankle_angle_l	subtalar_angle_l	mtp_angle_l	lumbar_extension	lumbar_bending	lumbar_rotation	arm_flex_r	arm_add_r	arm_rot_r	elbow_flex_r	pro_sup_r	wrist_flex_r	wrist_dev_r	arm_flex_l	arm_add_l	arm_rot_l	elbow_flex_l	pro_sup_l	wrist_flex_l	wrist_dev_l
      2.06539999999999990000	     -3.21353097349056900000	      0.39659551100801310000	     -0.31324347738407887000	      1.06283404047544620000	      1.03885517893371370000	     -0.30388398161236113000	      0.36061855501081291000	      6.08718580979498910000	      7.19175804904196970000	    -49.80918283725945600000	    -14.95826839262008300000	     -0.00000000000003640077	      0.00000000000004256374	     26.03662153669495200000	      3.16488107699972330000	      0.05947157508119274600	    -22.47548416172506700000	    -18.30830147116109800000	     -0.00000000000002798703	     -0.00000000000001553974	     -7.62594828620038090000	     -1.32517413012326690000	     10.05003851734672800000	    -23.83415545450099400000	    -13.02153859026940300000	     -6.20729255186467470000	     96.90997973270420100000	     77.94758898427382100000	      0.00000000000001489967	      0.00000000000003500997	    -48.91861107712406200000	    -15.45366189377255800000	     -7.43645694166631530000	    107.50585916969965000000	     83.05514522305040300000	      0.00000000000000391873	     -0.00000000000000429562
      2.06640000000000020000	     -3.12187338661949850000	      0.44047682478596600000	     -0.30908237866391636000	      1.06285789598933440000	      1.03858080077012560000	     -0.30384837681139498000	      0.42510434362423333000	      6.06415405187061560000	      7.17916936432163140000	    -50.21760234398835400000	    -14.80306930657795700000	     -0.00000000000003642011	      0.00000000000004257949	     25.92043767228557600000	      3.23066778568213970000	      0.05540735656397522600	    -22.59481260172884700000	    -18.29649347192520600000	     -0.00000000000002810460	     -0.00000000000001559227	     -7.72777502319768320000	     -1.40248620063534090000	      9.99797289603143290000	    -23.88378348209790800000	    -12.98370325590858900000	     -6.19473140098715190000	     96.80446920741219700000	     77.93066800997645800000	      0.00000000000001498995	      0.00000000000003510778	    -48.89284251953475300000	    -15.48127297377641500000	     -7.43001502505386120000	    107.56257202636257000000	     83.00482178293464100000	      0.00000000000000393242	     -0.00000000000000431560
      2.06740000000000010000	     -3.03048517312109440000	      0.48391831329384766000	     -0.30519367920641260000	      1.06288167927827400000	      1.03829592922906410000	     -0.30381289515262350000	      0.49105921144305198000	      6.04091555301428510000	      7.16523628508722420000	    -50.62642785818739100000	    -14.64687835172080500000	     -0.00000000000003643904	      0.00000000000004259326	     25.80473532417241600000	      3.29615556821947300000	      0.05345650547731155300	    -22.71913482954500900000	    -18.27542243247444300000	     -0.00000000000002822250	     -0.00000000000001564449	     -7.82922821388733950000	     -1.47915916505695330000	      9.94627680670357070000	    -23.93480037026000700000	    -12.94561724331479400000	     -6.18231492986324580000	     96.69687452504288700000	     77.91062700544446800000	      0.00000000000001508008	      0.00000000000003520378	    -48.86520328395840800000	    -15.51007668629674200000	     -7.42232049209830440000	    107.61800024470477000000	     82.95653433369723500000	      0.00000000000000394606	     -0.00000000000000433593
      2.06840000000000000000	     -2.93949321240093480000	      0.52684669524126082000	     -0.30159638558918900000	      1.06290539466899330000	      1.03800036740813370000	     -0.30377759887895806000	      0.55862407663442004000	      6.01751395654767050000	      7.14996720051909130000	    -51.03563605002035800000	    -14.48991483348884800000	     -0.00000000000003645935	      0.00000000000004260678	     25.68962439206007200000	      3.36128523422218570000	      0.05369912188271559100	    -22.84840760785162700000	    -18.24455222937986700000	     -0.00000000000002834021	     -0.00000000000001569813	     -7.93015709000587690000	     -1.55509810337739700000	      9.89496334545670210000	    -23.98718344280951300000	    -12.90731162775687600000	     -6.17005022024404150000	     96.58720379575601100000	     77.88748997224321600000	      0.00000000000001517001	      0.00000000000003530066	    -48.83572166080168800000	    -15.54002175254198200000	     -7.41338316924421560000	    107.67213526498224000000	     82.91033418374004800000	      0.00000000000000395960	     -0.00000000000000435726
      2.06939999999999990000	     -2.84902026625845870000	      0.56918991273004083000	     -0.29831101388578563000	      1.06292905109055360000	      1.03769391948303440000	     -0.30374255589310978000	      0.62793603132379172000	      5.99399114029204050000	      7.13337362818069650000	    -51.44520653048221000000	    -14.33239049791108900000	     -0.00000000000003648210	      0.00000000000004262174	     25.57520536929156700000	      3.42600139002666420000	      0.05621499983088838700	    -22.98258387699007300000	    -18.20317581322869300000	     -0.00000000000002845797	     -0.00000000000001575200	     -8.03041500929433210000	     -1.63020863491615710000	      9.84404689141647360000	    -24.04090991723917300000	    -12.86881874755697200000	     -6.15794691420920070000	     96.47546708637700900000	     77.86128943761484300000	      0.00000000000001525965	      0.00000000000003540055	    -48.80442678964637100000	    -15.57105384889887700000	     -7.40321259913436960000	    107.72496943555311000000	     82.86626775256010500000	      0.00000000000000397300	     -0.00000000000000437864
      2.07039999999999980000	     -2.75921106852538680000	      0.61089004829519811000	     -0.29532701906105696000	      1.06295263639995400000	      1.03737637259924240000	     -0.30370787693432344000	      0.69915830317742966000	      5.97037215781323380000	      7.11543570701129990000	    -51.85512438410114600000	    -14.17450596856444600000	     -0.00000000000003650755	      0.00000000000004263715	     25.46161899616640800000	      3.49027076629888900000	      0.06107845371801488800	    -23.12161554177411900000	    -18.15129282839260900000	     -0.00000000000002857597	     -0.00000000000001580679	     -8.12983447188868170000	     -1.70440836353465990000	      9.79350989333464740000	    -24.09595416385279200000	    -12.83016519508360900000	     -6.14601631050946470000	     96.36166794971413200000	     77.83207074573512300000	      0.00000000000001534973	      0.00000000000003550278	    -48.77134611630633300000	    -15.60312044928630300000	     -7.39181944662684390000	    107.77649219557139000000	     82.82437459895614000000	      0.00000000000000398624	     -0.00000000000000439960
      2.07140000000000010000	     -2.67016878953887770000	      0.65182527760732645000	     -0.29263788972702076000	      1.06297623760030850000	      1.03704748894064510000	     -0.30367368720218646000	      0.77238971340321327000	      5.94675270956333520000	      7.09615016255958240000	    -52.26534909980539800000	    -14.01645571507920200000	     -0.00000000000003653369	      0.00000000000004265226	     25.34889146963624600000	      3.55403447345337440000	      0.06852485685589734800	    -23.26545329059868200000	    -18.08543952520089700000	     -0.00000000000002869318	     -0.00000000000001586268	     -8.22828119964465190000	     -1.77754114100461710000	      9.74334606174570620000	    -24.15231271752089300000	    -12.79139902649083100000	     -6.13427484488488780000	     96.24584378191346400000	     77.79987302246489400000	      0.00000000000001544052	      0.00000000000003560443	    -48.73653061548441900000	    -15.63615357347227800000	     -7.37921262566543220000	    107.82671145134123000000	     82.78469380861271500000	      0.00000000000000399936	     -0.00000000000000442036
      2.07240000000000000000	     -2.58317873849940940000	      0.69192623664920527000	     -0.29013150393187215000	      1.06299940401606110000	      1.03670567036364680000	     -0.30364022984631966000	      0.84914679916344671000	      5.92318620852127430000	      7.07537138909519130000	    -52.67619009525202500000	    -13.85836275747499300000	     -0.00000000000003655922	      0.00000000000004266756	     25.23858935878055500000	      3.61724738645964280000	      0.07857126151931401200	    -23.41435052432558800000	    -18.00873496296534500000	     -0.00000000000002880941	     -0.00000000000001591879	     -8.32435090805772580000	     -1.84949600036416940000	      9.69346007843384430000	    -24.21007273931442700000	    -12.75249178072009000000	     -6.12274148199930760000	     96.12791499473732400000	     77.76482193328256200000	      0.00000000000001553072	      0.00000000000003570623	    -48.70012405798289000000	    -15.67011021047683000000	     -7.36541717374432010000	    107.87554632147297000000	     82.74727434405139100000	      0.00000000000000401238	     -0.00000000000000444047
      2.07339999999999990000	     -2.49864219902609940000	      0.73117318400556652000	     -0.28763815586987113000	      1.06302196670902130000	      1.03635056441777660000	     -0.30360783943639408000	      0.92987996428277031000	      5.89965440531447440000	      7.05292005841966940000	    -53.08769492298289800000	    -13.70037354958424600000	     -0.00000000000003658463	      0.00000000000004268403	     25.13120029570608000000	      3.67996092130764250000	      0.09131563838767742200	    -23.56836918598888200000	    -17.92238567464843900000	     -0.00000000000002892455	     -0.00000000000001597128	     -8.41761128417440570000	     -1.92021043447786740000	      9.64368290435117890000	    -24.26921661521350200000	    -12.71344827017488100000	     -6.11143218859636050000	     96.00785958130622100000	     77.72700866977339700000	      0.00000000000001561993	      0.00000000000003581012	    -48.66218829345913100000	    -15.70494577118692400000	     -7.35045195757051050000	    107.92297904058586000000	     82.71213488643172700000	      0.00000000000000402526	     -0.00000000000000445939
